<?xml version="1.0" standalone="no"?>
<!DOCTYPE svg PUBLIC "-//W3C//DTD SVG 20010904//EN"
 "http://www.w3.org/TR/2001/REC-SVG-20010904/DTD/svg10.dtd">
<svg version="1.0" xmlns="http://www.w3.org/2000/svg"
 width="220.000000pt" height="220.000000pt" viewBox="0 0 220.000000 220.000000"
 preserveAspectRatio="xMidYMid meet">
<metadata>
Created by potrace 1.11, written by Peter Selinger 2001-2013
</metadata>
<g transform="translate(0.000000,220.000000) scale(0.100000,-0.100000)"
fill="#000000" stroke="none">
<path d="M1079 2196 c-2 -2 -22 -7 -44 -10 -22 -3 -47 -7 -55 -9 -70 -15 -94
-22 -155 -43 -360 -127 -631 -447 -710 -839 -11 -53 -14 -288 -5 -345 22 -133
54 -233 113 -348 242 -476 795 -705 1314 -544 l87 27 -59 42 c-97 69 -116 85
-190 159 -79 80 -160 190 -146 198 5 3 22 4 39 2 17 -2 36 0 42 4 15 9 17 404
2 423 -7 8 -46 12 -132 12 -67 -1 -123 2 -125 6 -13 20 -21 232 -11 289 2 14
7 48 11 75 11 86 65 246 115 342 89 170 223 322 378 428 l74 50 -39 16 c-92
39 -216 61 -359 65 -78 2 -143 1 -145 0z"/>
<path d="M1415 1710 c-8 -13 -9 -1210 -1 -1218 9 -9 251 -9 275 0 l21 7 -2
608 -3 608 -142 3 c-88 2 -144 -1 -148 -8z"/>
<path d="M1805 1349 c-9 -14 -9 -848 -1 -857 10 -10 258 -10 279 0 16 8 17 37
15 436 l-3 427 -142 3 c-95 2 -144 -1 -148 -9z"/>
</g>
</svg>
